<?xml version="1.0" encoding="UTF-8"?><svg id="nav" xmlns="http://www.w3.org/2000/svg" viewBox="0 0 211 32"><defs><style>.cls-1{fill:#00f89c;}.cls-2{fill:red;}</style></defs><g><path class="cls-1" d="M11.44,31.96c-3.84,0-6.32-2.08-7.92-4.4v3.96H.44V2.31H3.52V14.99c1.68-2.48,4.12-4.6,7.92-4.6,4.96,0,9.88,3.92,9.88,10.76s-4.88,10.81-9.88,10.81Zm-.56-18.81c-3.84,0-7.48,3.2-7.48,8s3.64,8.04,7.48,8.04,7.28-2.96,7.28-8-3.36-8.04-7.28-8.04Z"/><path class="cls-1" d="M34.14,29.32c2.84,0,4.84-1.16,6.52-2.92l1.92,1.72c-2.08,2.32-4.6,3.88-8.52,3.88-5.68,0-10.33-4.36-10.33-10.8,0-6,4.2-10.81,9.93-10.81,6.12,0,9.64,4.88,9.64,10.97,0,.28,0,.6-.04,.96H26.86c.44,4.48,3.64,7,7.28,7Zm6.04-9.28c-.32-3.76-2.48-7.04-6.6-7.04-3.6,0-6.32,3-6.72,7.04h13.33Z"/><path class="cls-1" d="M55.83,29.32c2.84,0,4.84-1.16,6.52-2.92l1.92,1.72c-2.08,2.32-4.6,3.88-8.52,3.88-5.68,0-10.33-4.36-10.33-10.8,0-6,4.2-10.81,9.93-10.81,6.12,0,9.64,4.88,9.64,10.97,0,.28,0,.6-.04,.96h-16.41c.44,4.48,3.64,7,7.28,7Zm6.04-9.28c-.32-3.76-2.48-7.04-6.6-7.04-3.6,0-6.32,3-6.72,7.04h13.33Z"/><path class="cls-1" d="M72.57,25.64c0,2.52,1.4,3.44,3.48,3.44,1.04,0,1.92-.2,3-.72v2.64c-1.08,.56-2.24,.88-3.72,.88-3.32,0-5.84-1.64-5.84-5.84V13.55h-2.88v-2.72h2.88V4.59h3.08v6.24h6.56v2.72h-6.56v12.09Z"/><path class="cls-1" d="M85.66,31.52h-3.08V2.31h3.08V14.43c1.36-2.24,3.52-4.04,7.08-4.04,5,0,7.92,3.36,7.92,8.28v12.85h-3.08v-12.09c0-3.84-2.08-6.24-5.72-6.24s-6.2,2.6-6.2,6.48v11.85Z"/><path class="cls-1" d="M114.68,32c-6.2,0-10.73-4.88-10.73-10.76s4.56-10.85,10.81-10.85,10.76,4.88,10.76,10.76-4.6,10.85-10.85,10.85Zm0-18.89c-4.48,0-7.56,3.56-7.56,8.04s3.28,8.08,7.64,8.08,7.6-3.56,7.6-8-3.32-8.12-7.68-8.12Z"/><path class="cls-1" d="M143.21,10.83h3.32l-9.01,20.85h-2.72l-8.96-20.85h3.4l6.96,17.17,7-17.17Z"/><path class="cls-1" d="M157.31,29.32c2.84,0,4.84-1.16,6.52-2.92l1.92,1.72c-2.08,2.32-4.6,3.88-8.52,3.88-5.68,0-10.33-4.36-10.33-10.8,0-6,4.2-10.81,9.93-10.81,6.12,0,9.64,4.88,9.64,10.97,0,.28,0,.6-.04,.96h-16.41c.44,4.48,3.64,7,7.28,7Zm6.04-9.28c-.32-3.76-2.48-7.04-6.6-7.04-3.6,0-6.32,3-6.72,7.04h13.33Z"/><path class="cls-1" d="M172.96,31.52h-3.08V10.83h3.08v3.6c1.36-2.24,3.52-4.04,7.08-4.04,5,0,7.92,3.36,7.92,8.28v12.85h-3.08v-12.09c0-3.84-2.08-6.24-5.72-6.24s-6.2,2.6-6.2,6.48v11.85Z"/></g><path class="cls-2" d="M209.12,14.06l-.47,.49-.44,.51-.5,.46-.22,.17-.39,.29-.37,.03-.25-.08-.4-.28-.57-.44-.63-.67-.4-.45-.6-.7-.57-.56-.34-.22-.28-.11-.28,.06-.45,.29-.25,.26-.45,.4-1.17,1.37-.47,.43-.25,.26-.45,.34-.42,.03-.48-.25-.6-.58-.72-.75-.43-.47-.68-.55-.43-.47-.14-.25-.29-.45-.03-.42,.33-.46,.44-.51,.42-.49,1.2-1.06,.39-.46,.17-.17,.28-.51-.03-.42-.32-.36-1.89-1.84-.43-.47-.26-.25-.32-.53-.09-.42,.3-.43,.22-.29,.5-.46,.47-.37,.47-.43,.64-.77,.53-.43,.48-.32,.42-.03,.43,.3,.71,.7,.89,.97,1,.86,.4,.28,.26,.14,.34-.06,.36-.26,.42-.37,.39-.46,1.08-1.23,.7-.71,.42-.32,.34-.12,.25,.02,.31,.25,.23,.17,.4,.45,.63,.78,.46,.44,.71,.58,.66,.64,.26,.36,.09,.31-.08,.31-.28,.4-.95,.97-.47,.43-.7,.6-.36,.43-.22,.23-.22,.4-.08,.31,.09,.25,.26,.36,.69,.67,1.57,1.36,.43,.47,.2,.25,.32,.42,.03,.48-.25,.54-.47,.49-.72,.69Zm-11.58-11.54l.2,.36,.02-.25-.09-.14-.14,.03Zm-1.25,1.51v-.06l-.14-.03v.06l.09,.08,.06-.06Zm.73-.29v-.11h-.11l-.06,.06,.03,.03v.06l.09,.03,.06-.06Zm.42-.32v-.06h-.11l-.03,.03v.06h.11l.03-.03Zm-.22,.34v.17l.12,.11,.73-.29-.71-.13-.14,.14Zm-.36,.65l.05-.17-.03-.03-.09-.03-.11,.11v.17l.17-.06Zm1.22-1.43v.11l.12,.05,.11-.11-.14-.08-.08,.03Zm.09,.48l-.14-.14-.14-.03,.03,.25,.2,.03,.05-.11Zm-.69,1.28l.28,.05-.14-.2-.23-.17-.03-.14-.2-.14,.15,.31h.06l.12,.28Zm-.34-.05l-.09-.08-.17,.06,.03,.14,.08,.03,.14-.14Zm.7-.6l.03,.2h.23l-.02,.25,.17-.23-.4-.22Zm.59-.37l-.03,.14,.51,.11v-.06l-.4-.22-.08,.03Zm.21,.87l.17-.28-.17-.28h-.06l-.03-.03-.14-.03-.08,.14,.32,.48Zm-1.21,.5l.26,.19-.06-.17-.09-.08-.11,.06Zm1.65-1.23l-.02,.31,.15,.31,.14-.03,.11-.28-.17-.28-.2-.03Zm-1.08,1.17h-.06l-.03,.09,.09,.08,.11-.06-.11-.11Zm-.1,.79l-.14-.08,.22-.4-.45,.12,.17,.34,.2,.03Zm1.55-2.11l.26,.48,.06,.28-.25,.26-.79,.12-.05,.17,.12,.22,.37-.09-.03-.14,.14-.09,.26,.25,.31-.03,.05-.11-.06-.11-.11,.06-.09-.08,.28-.51-.03-.14,.14-.26-.57-.27Zm-.86,1.11h-.11l-.03,.14,.09,.08,.05-.23Zm-.1,.62l.14-.03,.06,.06,.48-.03v-.11l-.79-.05-.08,.2,.06,.06h.11l.03-.09Zm-.02,.54l-.06-.11,.03-.14-.14-.08h-.17l-.31,.37,.06,.06h.51l.08-.09Zm.31-.31l-.03,.2-.14,.09v.11h.11l.22-.23v-.23l-.17,.06Zm3.09,5.01l.05-.34,.2-.14-.14-.14-.2,.09,.03,.03-.11-.05-.03-.25,.08-.03,.05-.23-.11-.05-.14,.09-.06-.06,.03-.03-.11-.11,.08-.09-.03-.08,.31-.31,.14,.08,.06-.06v-.11l-.09-.03,.06-.06-.03-.2-.14,.03-.14,.14-.09-.08v-.11l.14-.09v-.17l-.15-.14,.11-.17-.08,.14,.29,.28,.06-.06-.03-.14-.11-.11v-.28l.16-.23h.17l.17-.12,.14,.03v.23l-.02,.03h-.06v.06l.03,.03,.14-.03,.09,.14-.27,.62,.08-.03-.03,.03-.03,.08,.14-.03,.03-.03v-.06l-.03-.03h-.06l.28-.23h.11l.31,.19,.03,.31,.2,.03,.03-.09h.11l.06,.05,.25-.09-.03-.14-1.02-.55-.06-.34,.22-.45-.06-.17-.2-.03-.17,.12-.26-.59-.28,.17-.26-.25h-.06l.03-.08,.2-.09,.11-.23-.03-.03v-.06l-.06-.06,.22-.06-.14-.08-.14,.09-.17-.22-.29-.33,.02-.42-.14-.14,.11-.17-.17-.05-.14,.09h-.06l-.11-.11-.06-.22-.11,.17,.09,.37-.51,.18,.09,.08,.56,.05,.11,.11-1.13-.04-.05,.17-.31,.26,.15,.53,.37-.03,.17,.11-.51,.18,.03,.14-.17,.28-.48,.26-.14-.03-.23-.22,.03-.14,.14-.03,.08-.09v-.11l-.4,.06v-.28l-.03-.03-.2,.03-.08,.09h-.11l-.05,.12,.92,.95,.08-.09,.22-.06-.05,.17,.18,.56,.17-.12-.12-.39,.05-.11-.03-.25,.31-.37,.25,.02,.11-.17,.06,.06,.28-.23,.08-.25-.06-.17-.14-.03-.03-.03,.19-.43,.25-.09,.12,.22-.08,.14h-.11l-.06,.06,.9,.1,.03-.03,.06,.11-.11,.06-.08,.14,.03,.03-.11,.11v.11l-.05,.06h-.45l-.25,.21,.14,.14,.06,.22,.14,.08,.14-.03,.11-.11v-.06l.14,.03,.11-.11-.06-.28,.14-.09,.03-.08,.17,.34-.02,.31-.19,.2h-.56l-.11,.18,.17,.22,.14,.03-.22,.06-.26-.25-.17,.06-.11,.17-.17,.06-.06-.11,.19-.43-.51,.06-.03-.08h-.11l-.03,.09,.11,.05,.09,.2-.03,.14,.06,.11,.08,.03-.02,.48,.47-.54,.42,.08-.06,.06v.06l-.2-.03-.28,.29,.12,.28-.03,.08-.17,.12-.05,.17,.23,.05,.19-.2h.06l.12,.17-.03,.2-.22,.12,.14,.08,.2-.09,.09,.2-.14,.2-.03-.03-.08,.03-.17-.05-.17,.06-.14-.14-.14,.09,.06,.11,.14,.08-.11,.51-.2-.03-.08,.2,.42-.2,.02-.25,.08-.03-.03-.14-.11-.05,.11-.11,.17,.05,.14-.09-.17,.23,.03,.37,.09,.08,.08-.09,.03-.2,.06-.06,.14,.08,.08-.09-.03-.14,.08-.03,.09,.03,.03,.25-.08,.03-.14,.26-.36,.15-.11,.17,.31-.09,.2,.25,.34-.06,.05-.11,.14-.03v.11h.11l.11-.12Zm-1.86-5.92l-.03,.08,.09,.08h.06l-.06-.17h-.06Zm-.86,1.34l.03,.08,.08,.03,.11-.11v-.11l-.09-.03-.11,.06-.03,.09Zm1.67,.17l.11,.05,.11-.06,.03-.08-.14-.08-.14,.09,.03,.08Zm3.21-2.78l-.08,.14,.03,.14,.31-.2-.06-.11-.2,.03Zm.36-.2l-.03,.09,.09,.08h.06l.06-.06-.11-.11h-.06Zm1.18,3.99l.06-.06,.2-.03,.08-.09-.54-.02-.23-.5-.1,.68-.11,.11-.12-.62,.16-.34-.03-.2-.4-.39-.53,.15v.39l-.11,.17-.18-.51-.43-.19-.32-.48,.08-.09-.03-.08,.08-.14,.31-.03-.03,.14,.11,.11,.14-.03-.06-.39,.31-.03-.03-.2-.09-.08v-.11l-.14-.08-.08,.14-.11,.06-.36,.2-.14,.37-.28,.17,.09,.08,.06,.22-.03,.03-.14-.08-.56,.18,.12,.17,.79-.07,.29,.22,.06,.34,.2,.14-.06,.06,.23,.28,.25,.08,.17-.06,.03-.14,.03-.03,.45,.22,.06,.22-.22,.17-.11-.11v-.11l-.12-.05-.1,.79,.23,.22,.06-.06h.06l.36-.32,.23,.05,.36-.15,.09,.08h.06l.05-.17-.09-.14,.03-.03v-.06Zm-6.54,2.26l.37,.25h.06l.03-.03,.34,.45,.08,.03,.08-.03-.32-.81,.05-.17-.2-.14-.19,.2,.11,.05,.11-.06,.03,.03-.22,.12-.03-.03-.06,.06v-.06l-.03,.03-.14-.03-.09-.08,.03-.09-.08-.03-.08,.03-.11,.4,.14,.03,.11-.11Zm6.36-6.83v.06l.06,.06,.08,.03,.03-.03v-.06l-.03-.03-.14-.03Zm-1.33,1.37v.56l.09,.08,.36-.2-.03-.14-.4-.33-.03,.03Zm.64-.32l-.36,.15-.05,.23,.14-.14,.17,.17,.23,.05-.12-.45Zm-2.06,2.28l-.14-.08-.28,.17,.03,.08,.11,.05,.25-.14,.03-.08Zm3.25-3.57l.03,.08,.14-.03,.14-.14,.11,.05,.14-.03-.31-.19-.25,.26Zm-5.95,6.34l.2-.03-.09-.14-.11-.05v.23Zm5.62-5.55l-.09-.14h-.17v.06l.14,.2,.11-.11Zm-7.34,7.49l.19-.26-.14-.03-.03,.03h-.06l-.14,.09,.03,.14,.14,.03Zm7.71-7.69l.06-.06-.14-.14h-.17l.06,.17,.2,.08v-.06Zm-.79,.35l-.08,.09v.11l.22-.23-.14,.03Zm-6.2,6.65l.02-.25-.33,.29,.06,.11h.11l.14-.14Zm-2.36,2.37l-.03-.14h-.06l-.05,.11,.09,.08,.06-.06Zm8.48-8.77l-.19,.26,.28-.17-.09-.08Zm-5.25,5.8l.34-.17,.11-.23-.17-.11-.22,.17-.05,.34Zm4.74-4.29l-.06-.11-.14-.03-.06-.06h-.06l-.03-.14-.14,.03-.03,.14,.43,.25,.08-.09Zm-1.56,1.15l-.14,.03-.08,.09-.11-.05-.11,.06-.11,.28,.11,.05,.11-.11,.43,.25-.04-.54,.08-.03v-.11l-.09-.03-.05,.11Zm-5.53,5.69l-.03-.14-.22,.06-.05,.11,.03,.08h.11l.17-.12Zm3.83-4.17l.12,.22-.11,.06-.25-.02,.25-.26Zm4.4-4.35v.06l-.28,.12-.05,.34,.64-.6-.31,.09Zm-7.54,7.69l.2,.19h.11l.23,.22,1.06-.92,.05-.28-.69,.77h-.17l-.14-.14,.08-.14-.23-.17-.5,.46Zm1.09-1.06l.03,.08,.14-.03,.03-.09-.11-.11-.08,.14Zm5.73-5.77h.06l.11-.12v-.06l-.09-.03-.11,.11,.03,.08Zm-.11,.28l-.17-.11-.08,.09v.11l.09,.03,.06,.11-.11,.34,.09,.25h.06l.03-.03,.05-.79Zm-.66,.91l-.03-.08-.08-.03-.11,.06v.06l.12,.11h.06l.05-.11Zm-7.23,7.26l.14,.03,.19-.2-.03-.03h-.06l-.06,.06-.2,.03v.11Zm4.78-4.97l-.11,.17,.11-.17Zm4.67-4.74l-.03,.08,.06,.06h.11v-.11l-.06-.06-.03,.03h-.06Zm.33-.29l.25,.02,.14-.09v-.06l-.06-.06-.34,.17Zm-7.56,7.89l.11,.05v-.06l-.09-.14-.06,.06,.03,.08Zm8.09-8.37l-.03,.14h.11l.03-.14h-.11Zm-10.18,10.46v.06l-.03-.03,.03-.03Zm-.14,.42l-.03-.08-.06-.06-.14,.09,.09,.08h.11l.03-.03Zm9.45-9.77h-.17l-.11,.12,.29,.79,.13-.76-.14-.14Zm-8.09,8.43l.03-.09-.03-.03h-.11v.06l-.03,.03,.14,.03Zm3.78-3.72l-.22,.12,.17,.28,.03,.03,.11-.11,.05-.73-.22,.17,.09,.25Zm3.11-3.43l-.14,.09,.14,.08,.14-.09-.14-.08Zm.7-.38h-.28l.2,.14,.28-.4-.2,.03v.23Zm-.06,1.72h-.11l-.29-.22-.03-.31-.17-.22,.05-.34-.37,.09,.03,.37h.17l.09,.14-.25,.26,.03,.31,.14,.08,.08-.09-.06-.11,.08-.09h.11l.43,.3,.14-.09,.28,.17,.27-.57-.64,.32Zm-7.67,6.28l.22-.06,.05-.11-.17-.11-.08,.03-.08,.14,.06,.11Zm8.54-8.83v.11h.06l.03,.03,.03-.03v-.06l-.11-.05Zm-3.15,4.61l.23,.11,.14,.2,.23,.05,.14-.09,.06,.22h.06l.03-.03v-.11l-.09-.14,.03-.03-.25-.08-.06-.11h-.11l-.03-.03-.03,.03-.28-.11-.12-.17v-.34l-.23-.22-.08,.14-.06-.06h-.06l-.03,.14h-.11l-.05,.34,.2,.08,.14-.09-.03-.08,.08-.09,.23,.45-.23-.05,.14,.25,.11-.06,.03-.14Zm-5.55,4.67v-.06l-.09-.03-.08,.09v.06l.17-.06Zm8.15-8.15l-.14-.08-.45,.34,.28,.17,.28-.17v-.06l.03-.03v-.17Zm-6.23,6.51l-.17-.22-.39,.34,.11,.05,.25-.2,.2,.03Zm.54-.04l-.06-.34-.37-.02,.37,.42,.06-.06Zm1.66-2.22l.03-.2h-.06l-.08,.14,.11,.05Zm4.48-4.71l-.03,.08,.03,.08,.08,.03,.17-.12,.03-.14-.14-.03-.14,.09Zm-4.98,5.23l.23,.05,.17,.34,.08,.03,.06-.06,.09,.14,.08,.03,.12,.34,.37,.08-.75-.89,.2-.09,.03,.03,.45-.18-.08,.25,.39-.29v-.06l.2-.09-.88-.19-.17-.17,.03,.25-.06,.06-.03,.14-.53,.26Zm-2.81,2.83l.11,.05,.25-.14v-.23l-.17,.23h-.11l-.08,.09Zm4.98-5l.06,.11,.06,.06,.14-.14-.06-.11-.14-.03-.05,.11Zm2.7-2.49l-.14-.08h-.06l-.06,.06-.02,.42,.03,.03h.06l.19-.43Zm-8.82,9.06l.03-.08-.03-.03-.14-.03v.11l.14,.03Zm8.6-8.27l.05-.17-.23-.05-.42,.15,.06,.17,.28,.11,.25-.2Zm-3.71,3.24l.14-.03,.08-.09-.09-.08-.14,.09v.11Zm-2.55,2.8v-.06l-.03-.03-.14-.03-.08,.09,.11,.05,.14-.03Zm7.06-7.26l-.05,.11,.11,.11,.06-.06,.03-.2-.14,.03Zm-2.45,2.57l-.03,.03v-.06l.03,.03Zm.75-.55l.03-.03-.08-.03-.14,.14,.2-.03v-.06Zm-5.65,5.74l-.14,.09,.11,.11,.23,.05,.22-.17-.39,.06-.03-.14Zm-.94,1.54v-.17l-.09-.14-.17-.05-.08,.14,.09,.08h.11l.14,.14Zm2.17-2.4l-.11-.11h-.11l-.08,.09,.31,.02Zm-.59,.37l-.14,.09-.05,.11,.03,.03h.06l.08-.09,.03-.14Zm4.04-3.64l-.03,.03-.03-.03h.06Zm-1.18,2.07l.19-.26-.46-.33v.23l.26,.02,.03,.03-.02,.31Zm-4.68,4.52l.03-.08-.06-.11-.03-.08-.06,.06v.23h.12Zm5.34-5.54l-.09-.03-.11,.06-.03,.09,.06,.17,.56,.05v-.06l-.4-.28Zm.02,1.13l.19-.37-.23-.39h-.23l-.11,.17,.31,.31,.06,.28Zm-1.2,.78l-.06-.17-.14-.14-.14,.09,.34,.22Zm.18,.73l-.12-.17,.22-.23,.05-.23-.56,.12v.11l.12,.11,.06,.22,.23,.05Zm.33-.91l-.11-.11-.14,.09,.14,.14h.11v-.11Zm1.3-1.51l.09,.76,.2-.03,.16-.34-.23-.34-.23-.05Zm.9,1.65l.05-.17-.06-.11-.14,.03-.11-.05,.36-.65-.06-.17,.22-.34-.68-.39,.06,.28,.14,.14,.15,.53-.98,.55-.37-.08,.09,.48,.45-.06-.03-.2,.22-.12,.26,.36,.42-.03Zm-1.56-.35l-.03-.14h-.11l-.05,.17,.09,.14,.11-.17Zm.66,.64v-.11l-.23-.05-.22,.12-.54-.13-.08,.09,.06,.22h.11l.22-.17,.11,.11,.56-.06Zm-.89,.69l-.06-.34-.17-.11h-.17l-.05,.17-.03-.03-.17,.17-.14,.03-.05,.11,.09,.08h.68l.08-.09Zm.62-.18v-.28h-.06l-.14,.09-.03,.14-.06,.06v.06l-.17,.06v.17l.14,.03,.08-.14h.06l.17-.17Zm1.54-1.06l-.03-.2-.11-.05-.03,.08,.03,.08,.14,.08Zm-1.25,1.29l-.03,.08,.06,.11,.08,.03,.14-.14-.03-.08-.11-.05-.11,.06Zm.3,1.18l.05-.11-.12-.17,.3-.48h-.62l-.06-.1h-.11l-.05,.12,.14,.08,.03,.14,.11,.11-.11,.17,.09,.14,.34,.11Zm.79-2.18l.03,.08,.11,.05,.14-.03,.08-.09-.2-.14-.17,.12Zm-.14,1.98l.03-.09-.03-.08-.11-.05-.17,.12,.03,.08,.11,.05,.14-.03Zm1.21-.21l-.17-.22-.22,.06-.7,.66v.17l.09,.08,.67-.74,.17,.05,.17-.06Zm.53-.49l.03-.14-.17-.17-.14,.03-.03,.14,.09,.14,.11,.05,.11-.06Zm-.32,1.53l-.17-.34v-.34l-.25,.37,.32,.36,.11-.06Zm-.76,.43v-.06l-.06-.06-.14,.09,.03,.08,.08,.03,.08-.09Zm1.4-1.03l.08-.03v-.06l-.03-.03-.08-.03-.11,.06,.14,.08Zm-1.1,1.71l-.06-.17-.2-.08,.17,.28h.06l.03-.03Zm2-2.28l-.05,.11,.06,.17,.08-.03,.03-.08v-.11l-.06-.06h-.06Zm-1.3,1.85l.08-.14-.03-.08h-.06l-.08,.14,.03,.08h.06Z"/></svg>