<?xml version="1.0" encoding="UTF-8"?><svg id="nav" xmlns="http://www.w3.org/2000/svg" viewBox="0 0 32 32"><defs><style>.cls-1{fill:#333;}</style></defs><path class="cls-1" d="M32,16c0,8.83-7.17,16-16,16-.88,0-1.76-.08-2.59-.21l4.69-4.69c.72-.72,.72-1.87,0-2.56-.69-.72-1.84-.72-2.56,0l-4.77,4.77c-.59,.61-1.39,.91-2.19,.88-2.88-1.52-5.25-3.89-6.77-6.77v-.05c0-.8,.29-1.57,.85-2.13l7.39-7.39c1.17-1.15,3.09-1.17,4.27,.03l1.09,1.07c.69,.72,1.84,.72,2.56,0,.69-.69,.69-1.84,0-2.53l-1.09-1.09c-2.59-2.59-6.8-2.59-9.36,0L.21,18.59c-.13-.83-.21-1.71-.21-2.59C0,7.17,7.17,0,16,0c.88,0,1.76,.08,2.59,.21l-4.69,4.69c-.72,.72-.72,1.87,0,2.56,.69,.72,1.84,.72,2.56,0l4.77-4.77c.59-.61,1.39-.91,2.19-.88,2.88,1.52,5.25,3.89,6.77,6.77v.05c0,.8-.29,1.57-.85,2.13l-7.39,7.39c-1.17,1.15-3.09,1.17-4.27-.03l-1.09-1.07c-.69-.72-1.84-.72-2.56,0-.69,.69-.69,1.84,0,2.53l1.09,1.09c1.31,1.31,2.99,1.95,4.69,1.95s3.39-.64,4.67-1.95l7.31-7.28c.13,.83,.21,1.71,.21,2.59Z"/></svg>