<?xml version="1.0" encoding="UTF-8"?><svg id="nav" xmlns="http://www.w3.org/2000/svg" viewBox="0 0 32 32"><defs><style>.cls-1{fill:#333;}</style></defs><path class="cls-1" d="M16.88,26.25h-1.72l-.24-.02h-.19l-.15-.02h-.14l-.15-.03c-.19-.02-.39-.03-.58-.06-.22-.03-.45-.05-.67-.09-.23-.04-.45-.09-.68-.13-.92-.18-1.83-.45-2.71-.77-.53-.19-1.05-.4-1.56-.64-.06-.03-.12-.05-.19-.08l-.66,.53c.87,.53,1.77,.97,2.72,1.34-.5,1.02-1.08,1.97-1.73,2.88-.08-.02-.16-.05-.24-.07-.76-.25-1.51-.52-2.24-.84-.88-.38-1.73-.8-2.56-1.27-.73-.42-1.45-.86-2.14-1.35-.28-.19-.54-.39-.82-.59-.07-.05-.1-.1-.1-.19,0-.21-.03-.42-.04-.63v-.03l-.03-.34v-.03l-.02-.21v-.24l-.02-.03v-.33c0-.41,0-.83,0-1.24,0-.31,0-.62,0-.93v-.03l.02-.45v-.03c.03-.28,.05-.57,.07-.85,.04-.38,.08-.76,.13-1.14,.07-.48,.13-.96,.23-1.44,.12-.61,.26-1.22,.41-1.83,.16-.66,.37-1.31,.59-1.96,.27-.8,.58-1.58,.93-2.35,.19-.42,.39-.85,.6-1.26,.46-.91,.95-1.79,1.49-2.65,.11-.18,.23-.35,.34-.53,.04-.06,.08-.1,.14-.12,.67-.31,1.34-.59,2.03-.85,.61-.23,1.23-.43,1.85-.61,.74-.21,1.49-.39,2.24-.53,.1-.02,.19-.04,.29-.05,.1-.02,.1-.01,.15,.07,.28,.53,.54,1.06,.78,1.61,0,.01,.02,.03,.03,.06,.11-.01,.22-.02,.34-.04,.09-.01,.17-.03,.25-.04,.11-.02,.22-.03,.33-.05,.14-.01,.28-.02,.41-.03l.15-.02h.12l.15-.02h.16l.17-.02h.19l.24-.03h2.27l.24,.02h.19l.17,.02h.16l.15,.02h.12l.15,.02c.19,.02,.38,.05,.57,.07,.15,.02,.3,.03,.45,.05,.08,0,.16,.02,.23,.03,.09,.02,.1,.01,.13-.07,.07-.16,.13-.32,.21-.47,.18-.38,.38-.76,.56-1.14,.03-.06,.06-.07,.12-.06,.66,.12,1.31,.26,1.96,.43,.82,.21,1.63,.47,2.43,.76,.7,.26,1.39,.55,2.07,.86,.06,.03,.09,.06,.12,.11,.23,.36,.46,.72,.68,1.08,.36,.58,.69,1.18,1,1.78,.39,.76,.75,1.53,1.08,2.32,.28,.69,.54,1.38,.77,2.09,.29,.89,.53,1.8,.72,2.72,.13,.64,.25,1.28,.33,1.93,.05,.38,.09,.76,.13,1.15,.02,.21,.03,.42,.05,.62v.03l.03,.34v.03l.02,.45v.03c.02,.1,.02,.21,.02,.31,0,.41,.02,.82,.02,1.23l-.02,.03c0,.24,0,.49-.01,.73,0,.04,0,.09,0,.13v.29l-.02,.19v.03l-.05,.67v.03c-.02,.13-.02,.26-.04,.38,0,.04-.04,.08-.07,.1-.23,.17-.47,.35-.71,.52-.73,.52-1.49,1-2.27,1.44-.57,.32-1.15,.62-1.73,.9-.68,.32-1.36,.61-2.06,.86-.37,.14-.75,.26-1.13,.39-.12,.04-.13,.03-.21-.07-.48-.68-.92-1.38-1.31-2.11-.1-.19-.21-.39-.31-.58-.01-.02-.02-.04-.03-.08,.94-.37,1.85-.81,2.72-1.34l-.66-.53c-.22,.1-.43,.19-.65,.29-.73,.32-1.49,.6-2.26,.82-.58,.17-1.17,.32-1.77,.43-.24,.04-.48,.07-.72,.11-.15,.02-.29,.05-.44,.07-.19,.02-.38,.03-.57,.05-.08,0-.16,.02-.23,.03l-.17,.02h-.16l-.24,.02Zm-6.4-11.65s-.06,.02-.09,.02c-.09,.01-.17,.02-.26,.04-.61,.13-1.1,.46-1.5,.92-.29,.34-.5,.72-.64,1.15-.1,.29-.17,.59-.17,.91v.54c0,.06,0,.11,0,.17,.08,.59,.27,1.14,.61,1.63,.36,.52,.83,.9,1.43,1.1,.18,.06,.35,.12,.54,.12l.2,.02h.17l.18-.02c.1-.02,.21-.02,.31-.05,.78-.19,1.36-.65,1.78-1.32,.32-.52,.49-1.09,.52-1.7,.03-.54-.03-1.06-.23-1.57-.3-.76-.8-1.35-1.54-1.7-.28-.13-.57-.22-.88-.22-.02,0-.04-.02-.06-.02-.12,0-.23,0-.35,0Zm13.7,3.52v-.51s-.01-.1-.02-.14c-.04-.44-.17-.86-.37-1.25-.27-.52-.65-.95-1.16-1.25-.35-.2-.72-.34-1.13-.35-.02,0-.03-.02-.05-.02-.12,0-.24,0-.36,0-.11,.02-.22,.03-.34,.05-.58,.13-1.06,.43-1.46,.87-.52,.58-.79,1.28-.86,2.06-.04,.52,.01,1.03,.19,1.52,.25,.72,.68,1.31,1.33,1.71,.33,.21,.69,.34,1.09,.37l.17,.02h.17l.2-.02s.1,0,.14-.01c.57-.1,1.05-.36,1.46-.77,.32-.31,.56-.68,.72-1.1,.15-.37,.25-.76,.26-1.17v-.03Z"/></svg>