<?xml version="1.0" encoding="UTF-8"?><svg id="nav" xmlns="http://www.w3.org/2000/svg" viewBox="0 0 32 32"><defs><style>.cls-1{fill:#333;fill-rule:evenodd;}</style></defs><path class="cls-1" d="M16,.5C7.16,.5,0,7.62,0,16.39c0,7.02,4.58,12.98,10.94,15.08,.8,.15,1.09-.34,1.09-.77,0-.38-.01-1.38-.02-2.7-4.45,.96-5.39-2.13-5.39-2.13-.73-1.84-1.78-2.32-1.78-2.32-1.45-.99,.11-.97,.11-.97,1.61,.11,2.45,1.64,2.45,1.64,1.43,2.43,3.74,1.73,4.66,1.32,.15-1.03,.56-1.73,1.02-2.12-3.55-.4-7.29-1.76-7.29-7.85,0-1.73,.62-3.15,1.65-4.26-.16-.4-.71-2.02,.16-4.21,0,0,1.34-.43,4.4,1.63,1.28-.35,2.64-.53,4.01-.53,1.36,0,2.73,.18,4.01,.53,3.05-2.06,4.4-1.63,4.4-1.63,.87,2.19,.32,3.8,.16,4.21,1.03,1.11,1.64,2.53,1.64,4.26,0,6.11-3.74,7.45-7.31,7.84,.57,.49,1.09,1.46,1.09,2.94,0,2.12-.02,3.84-.02,4.36,0,.42,.29,.92,1.1,.76,6.35-2.11,10.93-8.06,10.93-15.08C32,7.62,24.84,.5,16,.5Z"/></svg>