<?xml version="1.0" encoding="UTF-8"?><svg id="nav" xmlns="http://www.w3.org/2000/svg" viewBox="0 0 32 32"><defs><style>.cls-1{fill:#333;}</style></defs><g id="B2jRFM"><g><path class="cls-1" d="M9.06,25C4.07,25.01,0,20.98,0,16.02,0,11.04,4.05,7,9.06,7c5.01,0,9.07,4.03,9.07,9.01,0,4.95-4.06,8.98-9.06,8.99Z"/><path class="cls-1" d="M28.11,16.01c-.01,1.82-.28,3.6-1,5.29-.33,.79-.76,1.52-1.35,2.14-.43,.45-.92,.82-1.53,1.01-.8,.25-1.56,.11-2.26-.33-.66-.41-1.15-.99-1.55-1.64-.65-1.04-1.03-2.18-1.29-3.37-.26-1.22-.35-2.46-.3-3.7,.07-1.73,.39-3.42,1.12-5.01,.33-.71,.74-1.37,1.31-1.93,.45-.44,.96-.79,1.58-.94,.78-.2,1.5-.02,2.17,.41,.68,.44,1.18,1.06,1.59,1.75,.59,1,.96,2.09,1.2,3.22,.22,1.02,.32,2.06,.32,3.11Z"/><path class="cls-1" d="M28.61,15.87c.04-.84,.08-1.81,.15-2.77,.09-1.17,.25-2.33,.61-3.45,.1-.3,.23-.59,.38-.87,.06-.13,.17-.24,.28-.34,.18-.17,.41-.18,.59,0,.15,.15,.28,.33,.37,.52,.28,.53,.42,1.12,.54,1.7,.2,.95,.31,1.9,.38,2.87,.1,1.33,.12,2.67,.06,4-.05,1.12-.15,2.24-.35,3.35-.13,.71-.28,1.42-.59,2.08-.09,.19-.2,.37-.33,.53-.24,.29-.51,.28-.77,0-.23-.25-.36-.55-.47-.86-.24-.65-.39-1.32-.49-2-.11-.74-.2-1.49-.25-2.24-.06-.8-.07-1.6-.11-2.52Z"/></g></g></svg>