<?xml version="1.0" encoding="UTF-8"?><svg id="nav" xmlns="http://www.w3.org/2000/svg" viewBox="0 0 195 28.74"><defs><style>.cls-1{fill:#333;}</style></defs><g><path class="cls-1" d="M2.59,6.68H.82v2.57H0V1.96H2.73c1.65,0,2.73,.88,2.73,2.32,0,1.58-1.31,2.4-2.87,2.4Zm.07-3.96H.82v3.21h1.8c1.21,0,2-.65,2-1.61,0-1.05-.78-1.59-1.96-1.59Z"/><path class="cls-1" d="M12.43,9.38c-2.22,0-3.71-1.74-3.71-3.76s1.51-3.78,3.73-3.78,3.71,1.74,3.71,3.76-1.51,3.78-3.73,3.78Zm0-6.78c-1.67,0-2.85,1.33-2.85,3s1.21,3.02,2.88,3.02,2.85-1.33,2.85-3-1.21-3.02-2.88-3.02Z"/><path class="cls-1" d="M24.03,1.94h.68l2,6.09,2.08-6.07h.86l-2.61,7.35h-.7l-2-5.92-2.01,5.92h-.69l-2.61-7.35h.9l2.08,6.07,2-6.09Z"/><path class="cls-1" d="M38.51,2.71h-4.45v2.49h3.98v.75h-3.98v2.55h4.5v.75h-5.32V1.96h5.27v.75Z"/><path class="cls-1" d="M47.33,9.26l-2.12-2.83h-2.08v2.83h-.82V1.96h3.14c1.61,0,2.64,.86,2.64,2.18,0,1.22-.83,1.93-1.98,2.14l2.24,2.98h-1.01Zm-1.95-6.53h-2.25v2.96h2.24c1.09,0,1.87-.56,1.87-1.51s-.69-1.45-1.87-1.45Z"/><path class="cls-1" d="M57.2,2.71h-4.45v2.49h3.98v.75h-3.98v2.55h4.5v.75h-5.33V1.96h5.27v.75Z"/><path class="cls-1" d="M63.53,9.26h-2.53V1.96h2.53c2.29,0,3.88,1.57,3.88,3.64s-1.58,3.66-3.88,3.66Zm0-6.53h-1.71v5.77h1.71c1.85,0,3.02-1.25,3.02-2.88s-1.18-2.9-3.02-2.9Z"/><path class="cls-1" d="M81.92,3.79c0,.96-.58,1.45-1.16,1.7,.86,.26,1.56,.76,1.56,1.77,0,1.26-1.05,2-2.65,2h-3.24V1.96h3.1c1.44,0,2.38,.71,2.38,1.82Zm-.83,.11c0-.73-.57-1.2-1.61-1.2h-2.22v2.51h2.16c.99,0,1.68-.45,1.68-1.31Zm.41,3.3c0-.8-.67-1.26-1.94-1.26h-2.3v2.57h2.45c1.1,0,1.79-.49,1.79-1.31Z"/><path class="cls-1" d="M88.85,9.26h-.83v-2.89l-3.03-4.41h1l2.46,3.65,2.48-3.65h.96l-3.03,4.4v2.9Z"/><path class="cls-1" d="M122.93,9.26h-.89l-.85-1.93h-3.97l-.86,1.93h-.84l3.32-7.35h.77l3.32,7.35Zm-3.72-6.39l-1.67,3.72h3.32l-1.66-3.72Z"/><path class="cls-1" d="M131.82,1.96h.8v7.29h-.66l-4.71-5.98v5.98h-.8V1.96h.77l4.59,5.85V1.96Z"/><path class="cls-1" d="M139.3,9.26h-2.53V1.96h2.53c2.29,0,3.88,1.57,3.88,3.64s-1.58,3.66-3.88,3.66Zm0-6.53h-1.71v5.77h1.71c1.84,0,3.02-1.25,3.02-2.88s-1.18-2.9-3.02-2.9Z"/><path class="cls-1" d="M4.76,26.63H.14v-9.72H4.65c1.99,0,3.21,.99,3.21,2.51v.03c0,1.1-.58,1.71-1.28,2.1,1.13,.43,1.82,1.08,1.82,2.39v.03c0,1.78-1.44,2.67-3.64,2.67Zm.97-6.85c0-.64-.5-1-1.4-1H2.22v2.06h1.97c.95,0,1.54-.31,1.54-1.03v-.03Zm.54,3.89c0-.65-.49-1.06-1.58-1.06H2.22v2.14h2.54c.94,0,1.51-.33,1.51-1.06v-.03Z"/><path class="cls-1" d="M21.58,26.63l-.89-2.18h-4.11l-.89,2.18h-2.18l4.17-9.79h1.97l4.17,9.79h-2.24Zm-2.94-7.22l-1.29,3.15h2.58l-1.29-3.15Z"/><path class="cls-1" d="M29.49,26.63v-9.72h2.14v7.78h4.85v1.94h-6.99Z"/><path class="cls-1" d="M49.5,26.63l-.89-2.18h-4.11l-.89,2.18h-2.18l4.17-9.79h1.97l4.17,9.79h-2.24Zm-2.94-7.22l-1.29,3.15h2.58l-1.29-3.15Z"/><path class="cls-1" d="M64.23,26.63l-4.71-6.18v6.18h-2.11v-9.72h1.97l4.56,5.99v-5.99h2.11v9.72h-1.82Z"/><path class="cls-1" d="M77.11,26.8c-2.86,0-4.99-2.21-4.99-5v-.03c0-2.76,2.08-5.03,5.07-5.03,1.83,0,2.93,.61,3.83,1.5l-1.36,1.57c-.75-.68-1.51-1.1-2.49-1.1-1.64,0-2.82,1.36-2.82,3.03v.03c0,1.67,1.15,3.06,2.82,3.06,1.11,0,1.79-.44,2.56-1.14l1.36,1.38c-1,1.07-2.11,1.74-3.99,1.74Z"/><path class="cls-1" d="M86.98,26.63v-9.72h7.34v1.9h-5.21v1.97h4.59v1.9h-4.59v2.04h5.28v1.9h-7.41Z"/><path class="cls-1" d="M106.37,26.63l-2.08-3.11h-1.68v3.11h-2.14v-9.72h4.45c2.29,0,3.67,1.21,3.67,3.21v.03c0,1.57-.85,2.56-2.08,3.01l2.38,3.47h-2.5Zm.04-6.4c0-.92-.64-1.39-1.68-1.39h-2.12v2.79h2.17c1.04,0,1.64-.56,1.64-1.38v-.03Z"/><path class="cls-1" d="M128,26.7h-1.89l-3.93-9.79h2.36l2.54,6.85,2.54-6.85h2.31l-3.93,9.79Z"/><path class="cls-1" d="M138.75,19.99l-1.5-1.21c.96-1.31,1.89-2.01,3.63-2.01,2.07,0,3.35,1.19,3.35,3.01,0,1.63-.83,2.45-2.56,3.78l-1.58,1.22h4.24v1.85h-7.2v-1.7l3.24-2.65c1.21-1,1.68-1.53,1.68-2.33s-.54-1.26-1.31-1.26-1.26,.42-1.99,1.31Z"/></g><path class="cls-1" d="M104.19,2.37c.06-.17,.13-.33,.22-.48,.23-.42,.53-.77,.95-1.02,.29-.17,.6-.28,.93-.31,.92-.09,1.81,.39,2.25,1.19,.16,.3,.26,.62,.28,.96,.04,.52-.07,1.01-.26,1.49-.21,.52-.49,1-.82,1.45-.54,.76-1.16,1.44-1.83,2.09-.54,.52-1.1,1.01-1.68,1.48-.03,.02-.05,.02-.08,0-1.06-.85-2.05-1.77-2.93-2.81-.44-.53-.85-1.09-1.17-1.7-.21-.39-.37-.8-.45-1.24-.11-.61-.06-1.19,.25-1.73,.35-.62,.89-1.01,1.59-1.14,.82-.15,1.52,.1,2.1,.71,.28,.29,.47,.64,.62,1.02l.02,.06h0Z"/><g id="Layer_2"><g id="Layer_1-2"><path id="SVGID-2" class="cls-1" d="M177.09,28.2c-9.34,0-16.91-2.7-16.91-6.32,0-1.89,2.06-3.59,5.36-4.78,2.58,1.65,6.9,2.5,11.8,2.5s9.01-1.03,11.61-2.62c3.11,1.19,5.05,2.84,5.05,4.66,0,3.62-7.57,6.56-16.91,6.56Z"/><path id="SVGID-3" class="cls-1" d="M177.19,18.78c-7.08,0-12.82-2.22-12.82-4.96,0-1.52,1.77-2.88,4.55-3.79,1.98,1.03,4.95,1.69,8.28,1.69s6.3-.66,8.28-1.69c2.78,.91,4.55,2.27,4.55,3.79,0,2.74-5.74,4.96-12.82,4.96Z"/><path id="SVGID-4" class="cls-1" d="M177.14,10.91c-5.47,0-9.91-1.83-9.91-4.09s4.44-4.09,9.91-4.09,9.91,1.83,9.91,4.09-4.44,4.09-9.91,4.09h0Z"/></g></g></svg>