<?xml version="1.0" encoding="UTF-8"?><svg id="nav" xmlns="http://www.w3.org/2000/svg" viewBox="0 0 32 32"><defs><style>.cls-1{fill:red;}</style></defs><rect x="0" y="0" width="32" height="32" rx="16" ry="16"/><path class="cls-1" d="M24.42,22.72l-.53,.63-.49,.66-.56,.6-.25,.23-.44,.38-.44,.07-.31-.07-.5-.3-.73-.48-.82-.75-.52-.5-.79-.78-.74-.62-.43-.24-.35-.11-.33,.1-.51,.39-.28,.33-.5,.52-1.28,1.75-.53,.56-.28,.33-.51,.45-.51,.08-.6-.25-.77-.65-.93-.84-.56-.53-.87-.61-.56-.53-.2-.29-.39-.51-.08-.51,.36-.58,.49-.66,.46-.62,1.35-1.38,.43-.58,.19-.22,.29-.64-.08-.51-.41-.41-2.43-2.04-.56-.53-.33-.28-.43-.61-.15-.5,.33-.54,.24-.36,.56-.6,.54-.49,.53-.56,.7-.98,.6-.56,.54-.42,.51-.08,.54,.33,.92,.77,1.15,1.09,1.28,.95,.5,.3,.32,.14,.4-.1,.41-.34,.47-.48,.43-.58,1.19-1.57,.77-.92,.48-.42,.39-.17h.31l.4,.28,.29,.18,.52,.5,.83,.88,.59,.49,.91,.64,.85,.71,.34,.41,.13,.36-.07,.38-.3,.5-1.05,1.25-.53,.56-.78,.79-.4,.55-.25,.29-.23,.5-.07,.38,.13,.3,.34,.41,.88,.74,2.01,1.5,.56,.53,.26,.28,.42,.48,.08,.57-.25,.67-.53,.63-.81,.89ZM9.46,9.86l.28,.42v-.31l-.11-.16-.17,.05Zm-1.37,1.93v-.07l-.18-.02v.07l.12,.09,.06-.07Zm.85-.42v-.14h-.15l-.06,.09,.04,.03v.07l.11,.03,.06-.07Zm.48-.42v-.07h-.14l-.03,.05v.07h.14l.03-.05Zm-.24,.43l.02,.2,.15,.12,.85-.42-.86-.1-.15,.18Zm-.37,.82l.05-.21-.04-.03-.1-.02-.12,.15,.02,.2,.2-.09Zm1.34-1.82v.14l.15,.06,.12-.15-.18-.09-.1,.04Zm.15,.57l-.18-.15-.17-.02,.06,.3h.24l.06-.13Zm-.71,1.6l.34,.04-.19-.22-.29-.18-.05-.17-.25-.15,.2,.36h.07l.17,.32Zm-.41-.03l-.11-.09-.2,.09,.05,.17,.1,.03,.15-.18Zm.78-.79l.05,.23,.27-.02v.31l.17-.29-.5-.23Zm.67-.5l-.02,.17,.62,.08v-.07l-.5-.23-.1,.04Zm.33,1.03l.17-.36-.23-.32h-.07l-.04-.02-.17-.02-.09,.18,.42,.54Zm-1.41,.7l.33,.21-.09-.2-.11-.09-.13,.08Zm1.87-1.63v.38l.2,.36,.17-.05,.11-.35-.23-.32h-.24Zm-1.2,1.49h-.07l-.02,.11,.11,.09,.13-.08-.15-.12Zm-.05,.96l-.18-.09,.23-.5-.53,.18,.24,.39h.24Zm1.68-2.66l.36,.55,.1,.33-.28,.33-.94,.22-.05,.21,.16,.26,.43-.14-.05-.17,.16-.12,.33,.28,.37-.07,.06-.14-.08-.13-.13,.08-.11-.09,.29-.64-.05-.17,.14-.32-.71-.28Zm-.93,1.41h-.14l-.02,.18,.11,.09,.04-.28Zm-.07,.76l.17-.05,.07,.06,.57-.08v-.14l-.97,.02-.08,.25,.07,.06h.14l.03-.12Zm.02,.65l-.08-.13,.02-.17-.18-.09-.2,.02-.33,.47,.07,.06,.61-.05,.09-.11Zm.34-.41v.24l-.17,.12v.14h.15l.25-.31-.02-.27-.2,.09Zm4.16,5.75l.03-.41,.22-.19-.18-.15-.23,.12,.04,.03-.14-.06-.06-.3,.1-.04,.04-.28-.14-.06-.16,.12-.07-.06,.03-.04-.15-.12,.09-.11-.04-.1,.34-.41,.18,.09,.06-.07v-.14l-.12-.02,.06-.07-.05-.23-.17,.05-.15,.18-.11-.09v-.14l.15-.12-.02-.2-.18-.15,.12-.22-.09,.18,.37,.31,.06-.07-.05-.17-.15-.12-.03-.34,.18-.29,.2-.02,.19-.15,.17,.02,.02,.27-.03,.04h-.07v.07l.04,.03,.17-.05,.12,.16-.27,.78,.1-.04-.03,.04-.03,.1,.17-.05,.03-.04v-.07l-.04-.03h-.07l.32-.29h.14l.39,.19,.07,.37h.24l.02-.09h.14l.07,.05,.3-.13-.05-.17-1.28-.57-.1-.4,.22-.57-.09-.2h-.24l-.19,.14-.37-.69-.32,.23-.33-.28h-.07l.02-.1,.23-.12,.11-.28-.04-.03v-.07l-.08-.06,.27-.09-.18-.09-.16,.12-.23-.25-.37-.38v-.51l-.19-.15,.12-.22-.21-.05-.16,.12h-.07l-.15-.12-.09-.27-.12,.22,.14,.43-.59,.26,.11,.09h.68l.15,.13-1.36,.05-.05,.21-.35,.34,.23,.63,.44-.07,.22,.12-.59,.26,.05,.17-.17,.36-.55,.36-.17-.02-.29-.25,.02-.17,.17-.05,.09-.11v-.14l-.48,.11-.03-.34-.04-.03-.23,.05-.09,.11h-.14l-.06,.15,1.19,1.06,.09-.11,.27-.09-.05,.21,.26,.66,.19-.15-.18-.46,.06-.14-.06-.3,.33-.47h.31l.12-.21,.07,.06,.32-.3,.07-.31-.09-.2-.17-.02-.04-.03,.19-.53,.3-.13,.16,.26-.09,.18h-.14l-.06,.09,1.1,.04,.03-.04,.08,.13-.13,.08-.09,.18,.04,.03-.12,.15v.14l-.05,.07-.54,.05-.28,.26,.18,.15,.09,.27,.18,.09,.17-.05,.12-.15v-.07l.17,.02,.12-.15-.1-.33,.16-.12,.03-.1,.24,.39v.38l-.22,.26-.68,.06-.12,.22,.23,.25,.17,.02-.27,.09-.33-.28-.2,.09-.12,.22-.2,.09-.08-.13,.19-.53-.6,.12-.04-.1h-.14l-.03,.12,.14,.06,.12,.23-.02,.17,.08,.13,.1,.02,.02,.58,.52-.69,.52,.06-.06,.07v.07h-.23l-.31,.36,.17,.33-.03,.1-.19,.15-.05,.21,.28,.04,.22-.26h.07l.15,.19v.24l-.27,.16,.18,.09,.23-.12,.12,.23-.15,.25-.04-.03-.1,.04-.21-.05-.2,.09-.18-.15-.16,.12,.08,.13,.18,.09-.08,.62h-.24l-.08,.23,.49-.28v-.31l.11-.04-.05-.17-.14-.06,.12-.15,.21,.05,.16-.12-.18,.29,.07,.44,.11,.09,.09-.11v-.24l.07-.07,.18,.09,.09-.11-.05-.17,.1-.04,.1,.02,.06,.3-.1,.04-.14,.32-.43,.21-.12,.22,.36-.13,.26,.28,.4-.1,.06-.14,.17-.05v.14h.15l.12-.16Zm-2.76-6.96l-.03,.1,.11,.09h.07l-.09-.2h-.07Zm-.91,1.69l.04,.1,.1,.03,.12-.15v-.14l-.12-.02-.13,.08-.02,.1Zm2.02,.06l.14,.06,.13-.08,.03-.1-.18-.09-.16,.12,.04,.1Zm3.61-3.63l-.09,.18,.05,.17,.35-.27-.08-.13-.23,.05Zm.42-.28l-.02,.1,.11,.09h.07l.06-.08-.15-.12h-.07Zm1.78,4.7l.06-.07,.23-.05,.09-.11-.65,.02-.32-.59-.06,.83-.12,.15-.2-.73,.17-.42-.05-.23-.52-.43-.63,.23,.04,.47-.12,.22-.26-.59-.53-.19-.42-.54,.09-.11-.04-.1,.09-.18,.37-.07-.02,.17,.15,.12,.17-.05-.11-.47,.37-.07-.05-.23-.11-.09v-.14l-.19-.09-.09,.18-.13,.08-.42,.28-.13,.46-.32,.23,.11,.09,.09,.27-.03,.04-.18-.09-.66,.26,.15,.19,.94-.15,.36,.24,.1,.4,.25,.15-.06,.07,.3,.32,.31,.07,.2-.09,.02-.17,.03-.04,.57,.22,.09,.27-.25,.23-.15-.12v-.14l-.15-.06-.05,.96,.29,.25,.06-.07h.07l.41-.42,.28,.04,.43-.21,.11,.09h.07l.05-.22-.12-.16,.03-.04v-.07Zm-7.67,3.3l.47,.27h.07l.03-.04,.45,.51,.1,.03,.1-.04-.46-.95,.05-.21-.25-.15-.22,.26,.14,.06,.13-.08,.04,.03-.26,.16-.04-.03-.06,.07v-.07l-.04,.04-.17-.02-.11-.09,.02-.1-.1-.02-.1,.04-.09,.49,.17,.02,.12-.15Zm7.05-8.78v.07l.08,.06,.1,.02,.03-.04v-.07l-.04-.03-.17-.02Zm-1.48,1.77l.06,.68,.11,.09,.42-.28-.05-.17-.51-.37-.03,.04Zm.75-.44l-.43,.21-.04,.28,.15-.18,.22,.19,.28,.04-.18-.53Zm-2.27,2.93l-.18-.09-.32,.23,.04,.1,.14,.06,.29-.2,.02-.1Zm3.59-4.58l.04,.1,.17-.05,.15-.18,.14,.06,.17-.05-.39-.2-.28,.33Zm-6.59,8.16l.23-.05-.12-.16-.14-.06,.02,.27Zm6.27-7.17l-.12-.16-.2,.02v.07l.2,.22,.12-.15Zm-8.17,9.66l.21-.33-.17-.02-.03,.04h-.07l-.16,.12,.05,.17,.17,.02Zm8.59-9.94l.06-.07-.18-.15-.2,.02,.09,.2,.25,.08v-.07Zm-.92,.49l-.09,.11v.14l.26-.29-.17,.05Zm-6.87,8.56v-.31l-.37,.37,.08,.13h.14l.15-.2Zm-2.63,3.06l-.05-.17h-.07l-.06,.15,.11,.09,.06-.07Zm9.43-11.31l-.21,.33,.32-.23-.11-.09Zm-5.8,7.44l.39-.24,.11-.28-.22-.12-.25,.23-.03,.41Zm5.32-5.59l-.08-.13-.17-.02-.07-.06h-.07l-.05-.16-.17,.05-.02,.17,.53,.26,.09-.11Zm-1.78,1.52l-.17,.05-.09,.11-.14-.06-.13,.08-.11,.35,.14,.06,.12-.15,.53,.26-.09-.64,.1-.04v-.14l-.12-.03-.06,.14Zm-6.15,7.33l-.05-.17-.27,.09-.06,.14,.04,.1h.14l.19-.17Zm4.24-5.36l.16,.26-.13,.08h-.31l.28-.34Zm4.9-5.62v.07l-.32,.17-.03,.41,.72-.78-.36,.13Zm-8.39,9.92l.26,.22h.14l.29,.24,1.19-1.2,.04-.34-.77,.99-.2,.02-.18-.15,.09-.18-.29-.18-.56,.6Zm1.21-1.37l.04,.1,.17-.05,.02-.1-.15-.12-.09,.18Zm6.38-7.46h.07l.12-.15v-.07l-.11-.02-.12,.15,.04,.1Zm-.11,.35l-.22-.12-.09,.11v.14l.12,.03,.08,.13-.1,.42,.13,.3h.07l.03-.04-.02-.95Zm-.72,1.16l-.04-.1-.1-.03-.13,.08v.07l.15,.12h.07l.06-.15Zm-8.06,9.38l.17,.02,.22-.26-.04-.03h-.07l-.06,.08-.23,.05v.14Zm5.32-6.41l-.12,.22,.12-.22Zm5.2-6.12l-.03,.1,.07,.06h.14v-.15l-.09-.06-.03,.04h-.07Zm.38-.37h.31l.16-.11v-.07l-.08-.06-.39,.24Zm-8.4,10.16l.14,.06v-.07l-.12-.16-.06,.07,.04,.1Zm8.99-10.79l-.02,.17h.14l.02-.18h-.14Zm-11.32,13.5v.07l-.03-.03,.03-.04Zm-.12,.52l-.04-.1-.07-.06-.16,.12,.11,.09h.14l.03-.05Zm10.51-12.6l-.2,.02-.12,.15,.42,.92,.09-.93-.18-.15Zm-8.99,10.86l.02-.1-.04-.03h-.14v.08l-.02,.04,.17,.02Zm4.22-4.81l-.26,.16,.23,.32,.04,.03,.12-.15v-.89l-.26,.23,.13,.3Zm3.44-4.4l-.16,.12,.18,.09,.16-.12-.18-.09Zm.81-.51l-.34,.03,.25,.15,.3-.5-.23,.05,.02,.27Zm.08,2.08h-.14l-.36-.23-.07-.37-.23-.25,.03-.41-.43,.14,.07,.44,.2-.02,.12,.16-.28,.33,.07,.37,.18,.09,.09-.11-.08-.13,.09-.11h.14l.54,.32,.16-.12,.36,.17,.28-.71-.75,.44Zm-8.67,8.24l.27-.09,.06-.14-.22-.12-.1,.04-.09,.18,.08,.13Zm9.49-11.38v.14h.08l.04,.02,.03-.04v-.07l-.15-.06Zm-3.38,5.83l.28,.11,.19,.22,.28,.04,.16-.12,.09,.27h.07l.03-.04v-.14l-.13-.16,.03-.04-.31-.08-.08-.13h-.14l-.04-.02-.03,.04-.35-.11-.15-.19-.04-.41-.29-.25-.09,.18-.07-.06h-.07l-.02,.18h-.14l-.03,.42,.25,.08,.16-.12-.04-.1,.09-.11,.32,.52-.28-.04,.2,.29,.13-.08,.02-.17Zm-6.26,6.11v-.07l-.11-.02-.09,.11v.07l.2-.09Zm9.08-10.53l-.18-.09-.51,.45,.36,.17,.32-.23v-.07l.02-.04-.02-.2Zm-6.91,8.39l-.23-.25-.44,.45,.14,.06,.28-.26h.24Zm.64-.08l-.1-.4h-.44l.48,.47,.06-.07Zm1.8-2.82v-.24h-.05l-.09,.18,.14,.06Zm4.97-6.07l-.03,.1,.04,.1,.1,.03,.19-.15,.02-.17-.17-.02-.16,.12Zm-5.52,6.73l.28,.04,.24,.39,.1,.03,.06-.07,.12,.16,.1,.03,.17,.39,.45,.06-.98-1.01,.23-.12,.04,.03,.52-.25-.07,.31,.44-.38v-.07l.22-.12-1.07-.15-.22-.19,.06,.3-.06,.07-.02,.17-.62,.36Zm-3.13,3.65l.14,.06,.29-.2-.02-.27-.18,.29h-.14l-.09,.12Zm5.55-6.46l.08,.13,.07,.06,.15-.18-.08-.13-.17-.02-.06,.14Zm3.03-3.24l-.18-.09h-.07l-.06,.08v.51l.05,.03h.07l.19-.53Zm-9.8,11.68l.02-.1-.04-.03-.17-.02v.14l.18,.02Zm9.61-10.71l.05-.21-.28-.04-.49,.21,.09,.2,.35,.11,.28-.26Zm-4.17,4.22l.17-.05,.09-.11-.11-.09-.16,.12v.14Zm-2.82,3.59v-.07l-.04-.03-.17-.02-.09,.11,.14,.06,.17-.05Zm7.85-9.36l-.06,.14,.15,.12,.06-.07v-.24l-.15,.05Zm-2.72,3.31l-.03,.04v-.07l.03,.03Zm.86-.72l.03-.04-.1-.02-.15,.18,.23-.05v-.07Zm-6.29,7.41l-.16,.12,.15,.12,.28,.04,.25-.23-.47,.11-.05-.17Zm-.99,1.93l-.02-.2-.12-.16-.21-.05-.09,.18,.11,.09h.14l.18,.14Zm2.39-3.08l-.15-.12h-.14l-.09,.12h.38Zm-.67,.5l-.16,.12-.06,.14,.04,.03h.07l.09-.12,.02-.17Zm4.54-4.73l-.03,.04-.04-.03h.07Zm-1.24,2.6l.21-.33-.58-.36,.02,.27h.31l.04,.04v.38Zm-5.23,5.85l.03-.1-.08-.13-.04-.1-.06,.07,.02,.27h.14Zm5.93-7.15l-.1-.02-.13,.08-.02,.1,.09,.2h.68v-.06l-.51-.3Zm.12,1.36l.2-.46-.31-.45-.27,.02-.12,.22,.41,.34,.1,.33Zm-1.38,1.04l-.09-.2-.18-.15-.16,.12,.43,.24Zm.28,.86l-.15-.19,.25-.29,.04-.28-.67,.19v.14l.16,.12,.09,.27,.28,.04Zm.31-1.12l-.15-.12-.16,.12,.18,.15h.14v-.15Zm1.42-1.94l.18,.91,.23-.05,.17-.42-.31-.38-.28-.04Zm1.23,1.91l.05-.21-.08-.13-.17,.05-.14-.06,.37-.82-.09-.2,.24-.43-.85-.4,.1,.33,.18,.15,.23,.63-1.13,.75-.45-.06,.15,.57,.54-.12-.05-.23,.26-.16,.34,.41,.51-.08Zm-1.9-.28l-.05-.17h-.14l-.05,.22,.12,.16,.12-.22Zm.85,.71v-.14l-.29-.04-.26,.16-.66-.11-.09,.11,.09,.27h.14l.25-.24,.15,.12,.67-.13Zm-1.01,.91l-.1-.4-.22-.12-.2,.02-.05,.21-.04-.03-.19,.22-.17,.05-.06,.14,.11,.09,.81-.07,.09-.11Zm.73-.27l-.03-.34h-.07l-.16,.12-.02,.17-.06,.07v.07l-.19,.09,.02,.2,.17,.02,.09-.18h.07l.19-.23Zm1.75-1.42l-.05-.23-.14-.06-.03,.1,.04,.1,.18,.09Zm-1.39,1.66l-.03,.1,.08,.13,.1,.03,.15-.18-.04-.1-.14-.06-.13,.08Zm.46,1.39l.06-.14-.15-.19,.32-.61-.75,.07-.08-.13h-.14l-.06,.15,.18,.09,.05,.17,.15,.12-.12,.22,.12,.16,.42,.1Zm.75-2.7l.04,.1,.14,.06,.17-.05,.09-.11-.25-.15-.19,.15Zm0,2.39l.02-.1-.04-.1-.14-.06-.19,.15,.04,.1,.14,.06,.17-.05Zm1.44-.36l-.23-.25-.27,.09-.78,.85,.02,.2,.11,.09,.74-.95,.21,.05,.2-.09Zm.59-.63l.02-.17-.22-.19-.17,.05-.02,.17,.12,.16,.14,.06,.13-.08Zm-.25,1.87l-.24-.39-.04-.41-.27,.47,.41,.41,.13-.08Zm-.87,.59v-.07l-.08-.06-.16,.12,.04,.1,.1,.02,.09-.11Zm1.59-1.37l.1-.04v-.07l-.04-.03-.1-.03-.13,.08,.18,.09Zm-1.18,2.15l-.09-.2-.25-.08,.23,.32h.07l.03-.04Zm2.2-2.92l-.06,.14,.09,.2,.1-.04,.03-.1v-.14l-.09-.06h-.07Zm-1.4,2.35l.09-.18-.04-.1h-.07l-.09,.18,.04,.1h.07Z"/></svg>